<svg id="Layer_2" data-name="Layer 2" xmlns="http://www.w3.org/2000/svg" xmlns:xlink="http://www.w3.org/1999/xlink" viewBox="0 0 543.36 195.93"><defs><style>.cls-1{fill:none;}.cls-2{fill:url(#linear-gradient);}.cls-3{clip-path:url(#clip-path);}.cls-4{fill:url(#linear-gradient-2);}.cls-5{fill:url(#linear-gradient-3);}.cls-6{fill:url(#linear-gradient-4);}.cls-7{fill:url(#linear-gradient-5);}.cls-8{fill:url(#linear-gradient-6);}.cls-9{fill:url(#linear-gradient-7);}.cls-10{fill:url(#linear-gradient-8);}.cls-11{fill:url(#linear-gradient-9);}.cls-12{fill:url(#linear-gradient-10);}.cls-13{fill:url(#linear-gradient-11);}.cls-14{fill:url(#linear-gradient-12);}.cls-15{fill:url(#linear-gradient-13);}</style><linearGradient id="linear-gradient" x1="261.64" y1="466.53" x2="347.14" y2="466.53" gradientUnits="userSpaceOnUse"><stop offset="0" stop-color="#fff"/><stop offset="1" stop-color="#c4c4c4"/></linearGradient><clipPath id="clip-path" transform="translate(-261.64 -415.71)"><path class="cls-1" d="M321.11,737.65a58.48,58.48,0,0,1-8.81-.66A62.16,62.16,0,0,1,292,729.58a72.65,72.65,0,0,1-16.35-13l-3.47-3.76L269,708.89a50.23,50.23,0,0,1-3-4l-.84-1.21c-.65-.94-1.3-1.87-1.93-2.81a138.08,138.08,0,0,1-9.25-17,212.21,212.21,0,0,1-12.36-35.34,270.39,270.39,0,0,1-6.84-36.12A415.62,415.62,0,0,1,232.45,540c.74-12.82,1.84-24.55,3.34-35.89s3.47-22.92,5.93-35.46c2.81-13.06,5.58-24.48,8.48-35,3.29-11.6,7-23.14,11-34.31a424,424,0,0,1,30.6-65.65c2.86-5.05,6.13-10.29,9.71-15.56,3.35-5,7-10,10.76-14.94a211.85,211.85,0,0,1,25.25-27.68,140.55,140.55,0,0,1,15.11-12c1-.66,2-1.27,2.93-1.87l1.25-.79c1.55-1,2.9-1.81,4.36-2.56l4.36-2.34,4.61-2.07a72.72,72.72,0,0,1,20.19-5.6,64.49,64.49,0,0,1,7.61-.45,55.87,55.87,0,0,1,33.29,10.53,69.17,69.17,0,0,1,14.62,13.89l3,3.88,2.64,4a46,46,0,0,1,2.5,4.13l.74,1.3c.53.92,1.05,1.84,1.55,2.77a151.51,151.51,0,0,1,7.39,17c9.05,24.67,11.81,50.34,13.19,70,.78,11.42,1.05,23.24.79,35.12-.24,11.65-1.13,23.41-2,34.78v.12a616.07,616.07,0,0,1-10.15,69,616.47,616.47,0,0,1-17.72,67.43c-.58,1.8-1.21,3.61-1.82,5.36-.34,1-.68,1.93-1,2.9-.78,2.39-1.66,5-2.86,8.27-1.74,5-3.7,10.06-5.6,14.94l-.55,1.42c-4.44,11.06-9.32,21.82-14.51,32-8.92,17.46-21.47,40-39.57,59.22a151.63,151.63,0,0,1-13.41,12.69c-.87.7-1.71,1.34-2.55,2l-1.2.92c-1.14.88-2.48,1.91-4,2.83l-4,2.62-4.23,2.37a69.63,69.63,0,0,1-19,7.08A61.76,61.76,0,0,1,321.11,737.65Zm-32.82-32.36A56.07,56.07,0,0,0,300.48,716a45.73,45.73,0,0,0,14.79,6.17,44.3,44.3,0,0,0,8.39.79,48.36,48.36,0,0,0,7.56-.61,55.63,55.63,0,0,0,15.52-5l3.69-1.83,3.61-2.14c1.24-.7,2.38-1.49,3.45-2.24l3.52-2.45a126.52,126.52,0,0,0,12.7-11c14.32-14,27.43-32.08,40.1-55.12,5.37-9.82,10.45-20.21,15.1-30.88,4.38-10.15,8.59-20.95,12.49-32.1,3.44-9.87,6.77-20.64,10.19-32.93,2.74-10,5.37-21,8-33.55,2.47-12.56,4.36-23.69,5.76-34,1.69-12.65,2.85-23.86,3.55-34.28.78-11.8,1.16-23.38,1.11-34.43-.1-11.64-.69-23.19-1.78-34.33-2.61-26.16-7.6-47.88-15.25-66.41a126.68,126.68,0,0,0-7.45-15.17L443.34,291a40,40,0,0,0-2.27-3.38l-2.51-3.42L435.85,281a56,56,0,0,0-12.24-10.65,46.16,46.16,0,0,0-14.82-6.12,45.31,45.31,0,0,0-8.23-.75,48.22,48.22,0,0,0-7.72.63,55.72,55.72,0,0,0-15.48,5.08L373.69,271l-3.59,2.15a38,38,0,0,0-3.44,2.24l-3.51,2.46a127.45,127.45,0,0,0-12.64,11C336.27,302.92,323.24,321,310.68,344c-5.33,9.82-10.36,20.21-15,30.89-4.33,10.14-8.49,20.94-12.35,32.09-3.4,9.86-6.69,20.63-10.05,32.92-2.7,10-5.28,21-7.9,33.51-2.58,13-4.45,23.74-5.87,33.92-1.73,12.62-2.93,23.81-3.67,34.22-.82,11.76-1.23,23.33-1.23,34.37.05,11.61.61,23.15,1.65,34.29,2.51,26.12,7.42,47.83,15,66.35a128.08,128.08,0,0,0,7.38,15.18l2.2,3.53a39.79,39.79,0,0,0,2.26,3.38l2.49,3.43Z"/></clipPath><linearGradient id="linear-gradient-2" x1="353.86" y1="480.57" x2="429.49" y2="480.57" xlink:href="#linear-gradient"/><linearGradient id="linear-gradient-3" x1="437.12" y1="480.07" x2="497.47" y2="480.07" xlink:href="#linear-gradient"/><linearGradient id="linear-gradient-4" x1="508.28" y1="466.76" x2="564.38" y2="466.76" xlink:href="#linear-gradient"/><linearGradient id="linear-gradient-5" x1="574.8" y1="469.38" x2="639.31" y2="469.38" xlink:href="#linear-gradient"/><linearGradient id="linear-gradient-6" x1="644.02" y1="480.57" x2="719.34" y2="480.57" xlink:href="#linear-gradient"/><linearGradient id="linear-gradient-7" x1="729.6" y1="493.46" x2="805" y2="493.46" xlink:href="#linear-gradient"/><linearGradient id="linear-gradient-8" x1="410.59" y1="539.92" x2="370.46" y2="609.44" gradientUnits="userSpaceOnUse"><stop offset="0" stop-color="#ff7e29"/><stop offset="0.42" stop-color="#fd7d29"/><stop offset="0.6" stop-color="#f67a29"/><stop offset="0.73" stop-color="#e97529"/><stop offset="0.84" stop-color="#d86e29"/><stop offset="0.94" stop-color="#c16528"/><stop offset="1" stop-color="#ad5d28"/></linearGradient><linearGradient id="linear-gradient-9" x1="470.89" y1="559.79" x2="443.11" y2="607.9" xlink:href="#linear-gradient-8"/><linearGradient id="linear-gradient-10" x1="519.57" y1="553.89" x2="488.98" y2="606.87" xlink:href="#linear-gradient-8"/><linearGradient id="linear-gradient-11" x1="566.81" y1="555.36" x2="539.02" y2="603.49" xlink:href="#linear-gradient-8"/><linearGradient id="linear-gradient-12" x1="629.27" y1="561.8" x2="601.5" y2="609.9" xlink:href="#linear-gradient-8"/><linearGradient id="linear-gradient-13" x1="678.31" y1="548.15" x2="647.77" y2="601.05" xlink:href="#linear-gradient-8"/></defs><title>DesktopPortal_Dark</title><path class="cls-2" d="M261.64,422.73a6.8,6.8,0,0,1,2-5,6.68,6.68,0,0,1,4.93-2h27.86a49.58,49.58,0,0,1,13.43,1.82A51.2,51.2,0,0,1,322,422.62a44.54,44.54,0,0,1,10.26,8.29,62.51,62.51,0,0,1,7.95,10.65,51.13,51.13,0,0,1,5.13,12.08,49.76,49.76,0,0,1-5.13,38.78,52.28,52.28,0,0,1-7.95,10.19A49.46,49.46,0,0,1,322,510.48a52.81,52.81,0,0,1-12.12,5,49.58,49.58,0,0,1-13.43,1.82H268.58a6.86,6.86,0,0,1-6.94-7Zm13.89,7.18v73.16H296.7a34.9,34.9,0,0,0,14.49-3,36.39,36.39,0,0,0,19-19.41,34.8,34.8,0,0,0,2.71-13.58,35.65,35.65,0,0,0-2.71-13.7,42,42,0,0,0-7.53-12,33.92,33.92,0,0,0-11.44-8.45,34.28,34.28,0,0,0-14.41-3Z" transform="translate(-261.64 -415.71)"/><g id="Desktop"><path class="cls-4" d="M369,486.79a23,23,0,0,0,2.94,7.29,23.28,23.28,0,0,0,11.84,9.68,22.51,22.51,0,0,0,7.91,1.39,25.14,25.14,0,0,0,6.64-.73,22.12,22.12,0,0,0,5.25-2.28,8.3,8.3,0,0,1,4.09-1.23,5.77,5.77,0,0,1,2.58.58,7.25,7.25,0,0,1,3.59,3.82,7,7,0,0,1,.54,2.7,6.06,6.06,0,0,1-1.85,4.36,14.82,14.82,0,0,1-5,3.2,32.88,32.88,0,0,1-7.25,2,52.22,52.22,0,0,1-8.61.69,36.82,36.82,0,0,1-14.7-3,38.62,38.62,0,0,1-12-8.06,38,38,0,0,1-8.1-12,37.89,37.89,0,0,1,0-29.41,37.86,37.86,0,0,1,8.1-12,38.62,38.62,0,0,1,12-8.06,37.83,37.83,0,0,1,29.29,0,38.16,38.16,0,0,1,12,8,38.57,38.57,0,0,1,8.14,11.93,36.49,36.49,0,0,1,3.09,14.54,6.28,6.28,0,0,1-1.85,4.63,6.49,6.49,0,0,1-4.79,1.86Zm46.54-11.42a22,22,0,0,0-2.82-7.72,24.2,24.2,0,0,0-5.25-6.18,23.9,23.9,0,0,0-7.1-4.09,24.35,24.35,0,0,0-8.44-1.46,23.37,23.37,0,0,0-15.52,5.67,23.47,23.47,0,0,0-7.79,13.78Z" transform="translate(-261.64 -415.71)"/><path class="cls-5" d="M473.94,486.32H460a20.23,20.23,0,0,1-8.57-1.81,22,22,0,0,1-11.34-11.95,22.51,22.51,0,0,1-1.62-8.5,20.32,20.32,0,0,1,1.69-8.27,22.11,22.11,0,0,1,4.6-6.77A21.45,21.45,0,0,1,460,442.8h26.78a7.13,7.13,0,0,1,4.78,1.71,6.13,6.13,0,0,1,2,5,7.6,7.6,0,0,1-.5,2.76,7.4,7.4,0,0,1-1.39,2.25,6.41,6.41,0,0,1-2,1.51,5.75,5.75,0,0,1-2.47.54H460.05a7.5,7.5,0,0,0-3.13.66,8.25,8.25,0,0,0-2.51,1.78,8.57,8.57,0,0,0-1.7,2.54,7.66,7.66,0,0,0-.61,3.05,8.24,8.24,0,0,0,.61,3.24,7.34,7.34,0,0,0,1.74,2.51A8.74,8.74,0,0,0,457,472a7.63,7.63,0,0,0,3.05.62H475.6a21,21,0,0,1,8.73,1.81,21.47,21.47,0,0,1,6.92,4.9,23.13,23.13,0,0,1,4.56,7.18,22.65,22.65,0,0,1-4.62,24.27,21.8,21.8,0,0,1-7,4.82,21.55,21.55,0,0,1-8.77,1.78h-32a5.85,5.85,0,0,1-4.48-1.93,7.15,7.15,0,0,1-1.78-5,6.57,6.57,0,0,1,1.78-4.86,6.09,6.09,0,0,1,4.48-1.78h30.87a10.33,10.33,0,0,0,3.39-.58,9.63,9.63,0,0,0,3.09-1.73,9,9,0,0,0,2.24-2.82,8.48,8.48,0,0,0,.84-3.89A7.91,7.91,0,0,0,483,491a7.43,7.43,0,0,0-2.16-2.55,10.49,10.49,0,0,0-3-1.54,13.75,13.75,0,0,0-3.48-.62h-.38Z" transform="translate(-261.64 -415.71)"/><path class="cls-6" d="M521.94,486.25v24.38a6.42,6.42,0,0,1-2,4.79,6.62,6.62,0,0,1-4.78,1.93,6.86,6.86,0,0,1-4.89-1.93,6.37,6.37,0,0,1-2-4.79V422.89a6.52,6.52,0,0,1,.54-2.63,6.31,6.31,0,0,1,1.51-2.12,8.11,8.11,0,0,1,2.21-1.42,6.73,6.73,0,0,1,9.47,6.17l-.07,47.84,26.85-24.92a6.27,6.27,0,0,1,2.2-1.35,7.32,7.32,0,0,1,2.43-.43,6.52,6.52,0,0,1,2.63.54,7,7,0,0,1,2.16,1.47,7.66,7.66,0,0,1,1.5,2.16,6,6,0,0,1,.58,2.62,6.4,6.4,0,0,1-2.16,4.87l-24.62,22.84,29,27.24a6,6,0,0,1,1.85,4.48,6.77,6.77,0,0,1-.54,2.66,6.85,6.85,0,0,1-1.47,2.2,7.41,7.41,0,0,1-2.12,1.5,5.81,5.81,0,0,1-2.58.58,7.5,7.5,0,0,1-2.67-.5,6.67,6.67,0,0,1-2.43-1.58Z" transform="translate(-261.64 -415.71)"/><path class="cls-7" d="M574.8,427.44a6.77,6.77,0,0,1,.54-2.66,6.92,6.92,0,0,1,1.49-2.24A7.12,7.12,0,0,1,579,421a6.42,6.42,0,0,1,2.61-.54,7,7,0,0,1,2.69.54,7.27,7.27,0,0,1,2.26,1.46,7,7,0,0,1,1.53,2.2,6.51,6.51,0,0,1,.58,2.74v15.13h30.64a6.57,6.57,0,0,1,4.86,2,6.76,6.76,0,0,1,2,4.9,6.23,6.23,0,0,1-2,4.67,6.82,6.82,0,0,1-4.9,1.89H588.69v25.16a23,23,0,0,0,1.85,9.22,23.2,23.2,0,0,0,12.62,12.43,24.12,24.12,0,0,0,9.38,1.81,26.5,26.5,0,0,0,8.29-1.27,19.16,19.16,0,0,0,7.14-4.29,7.53,7.53,0,0,1,5.17-2.31,5.91,5.91,0,0,1,2.28.46,6.59,6.59,0,0,1,2,1.31,6.14,6.14,0,0,1,1.39,2,6.24,6.24,0,0,1,.5,2.55,8.19,8.19,0,0,1-.65,3.12,8.34,8.34,0,0,1-1.81,2.74,32.56,32.56,0,0,1-11,7,37.49,37.49,0,0,1-13.31,2.31,38,38,0,0,1-14.74-2.85,37.61,37.61,0,0,1-12-7.87,37.12,37.12,0,0,1-8.07-11.81,36.37,36.37,0,0,1-3-14.66Z" transform="translate(-261.64 -415.71)"/><path class="cls-8" d="M644,480.61A36.56,36.56,0,0,1,647,466a38.09,38.09,0,0,1,20.07-20.1,36.23,36.23,0,0,1,14.62-3,36.73,36.73,0,0,1,14.74,3,37.67,37.67,0,0,1,20,20.1,38.17,38.17,0,0,1,0,29.33,37.53,37.53,0,0,1-20,20,36.73,36.73,0,0,1-14.74,3,36.23,36.23,0,0,1-14.62-3,38.88,38.88,0,0,1-12-8.06,38,38,0,0,1-8.1-12A36.57,36.57,0,0,1,644,480.61Zm13.66,0a23,23,0,0,0,1.89,9.27,24.7,24.7,0,0,0,5.13,7.62,24.09,24.09,0,0,0,7.6,5.15,24.4,24.4,0,0,0,18.83,0,23.86,23.86,0,0,0,12.7-12.77,24.15,24.15,0,0,0,0-18.54,23.8,23.8,0,0,0-5.09-7.57,24.28,24.28,0,0,0-7.61-5.12,24.51,24.51,0,0,0-18.83,0,24.09,24.09,0,0,0-12.73,12.69A23,23,0,0,0,657.68,480.61Z" transform="translate(-261.64 -415.71)"/><path class="cls-9" d="M729.6,480.56a36.61,36.61,0,0,1,3-14.67,38.08,38.08,0,0,1,20.12-20.12,37.71,37.71,0,0,1,29.36,0,37.72,37.72,0,0,1,20,20.14,38.26,38.26,0,0,1,0,29.39,37.6,37.6,0,0,1-20,20.06,36.39,36.39,0,0,1-14.66,3,36.63,36.63,0,0,1-24.16-8.8V537a7.38,7.38,0,0,1-1.82,5,6.12,6.12,0,0,1-4.85,2.08,6.74,6.74,0,0,1-4.93-2A6.87,6.87,0,0,1,729.6,537Zm13.74.05a23.08,23.08,0,0,0,1.89,9.3,24.65,24.65,0,0,0,5.12,7.64,23.78,23.78,0,0,0,7.63,5.17,24.32,24.32,0,0,0,18.8,0,23.78,23.78,0,0,0,7.63-5.17,24.19,24.19,0,0,0,5.08-7.64,24.3,24.3,0,0,0,0-18.6,23.9,23.9,0,0,0-5.08-7.6,24.17,24.17,0,0,0-7.63-5.13,24.32,24.32,0,0,0-18.8,0,23.93,23.93,0,0,0-12.75,12.73A23.15,23.15,0,0,0,743.34,480.61Z" transform="translate(-261.64 -415.71)"/></g><g id="Portal"><path class="cls-10" d="M369.52,564.7v-.51a30.53,30.53,0,0,1,2.05-11,26.27,26.27,0,0,1,14.2-15A25.87,25.87,0,0,1,396.43,536a26.56,26.56,0,0,1,10.72,2.19,28,28,0,0,1,8.79,6,27.34,27.34,0,0,1,5.95,9.07,28.68,28.68,0,0,1,2.19,11,27,27,0,0,1-1,7.37,28.24,28.24,0,0,1-2.78,6.63A28,28,0,0,1,403.77,591a27,27,0,0,1-7.34,1,20.1,20.1,0,0,1-9.19-2.05,29.87,29.87,0,0,1-7.31-5.17l-.22,21.1a5.61,5.61,0,0,1-1.43,3.73,4.58,4.58,0,0,1-3.58,1.51,5,5,0,0,1-3.67-1.51,5.06,5.06,0,0,1-1.51-3.73Zm27.25,16.9a16.89,16.89,0,0,0,6.8-1.4,17.79,17.79,0,0,0,9.39-9.35,16.85,16.85,0,0,0,1.39-6.83,16.23,16.23,0,0,0-1.39-6.74,20.61,20.61,0,0,0-3.78-5.66,15.37,15.37,0,0,0-5.61-3.84,18.07,18.07,0,0,0-6.8-1.28,16.56,16.56,0,0,0-6.71,1.36,15.57,15.57,0,0,0-5.46,4,21.47,21.47,0,0,0-3.7,5.75,16.6,16.6,0,0,0-1.36,6.71,16.86,16.86,0,0,0,1.36,6.75,17.42,17.42,0,0,0,9.16,9.18A16.57,16.57,0,0,0,396.77,581.6Z" transform="translate(-261.64 -415.71)"/><path class="cls-11" d="M429.2,583.87a27,27,0,0,1,2.19-10.81,28.09,28.09,0,0,1,14.79-14.81A26.58,26.58,0,0,1,457,556.06a26.93,26.93,0,0,1,10.87,2.19,27.71,27.71,0,0,1,14.73,14.81,28,28,0,0,1,0,21.62,27.67,27.67,0,0,1-5.91,8.82,28.34,28.34,0,0,1-8.82,6A27.1,27.1,0,0,1,457,611.64a26.74,26.74,0,0,1-10.78-2.19,28.81,28.81,0,0,1-8.82-6,27.83,27.83,0,0,1-6-8.82A26.92,26.92,0,0,1,429.2,583.87Zm10.07,0a17,17,0,0,0,1.39,6.84,18.21,18.21,0,0,0,3.79,5.61,17.68,17.68,0,0,0,5.6,3.8,18,18,0,0,0,13.88,0,17.71,17.71,0,0,0,9.36-9.41,17.55,17.55,0,0,0-3.76-19.25,18,18,0,0,0-5.6-3.78,18.14,18.14,0,0,0-13.88,0,18,18,0,0,0-5.6,3.78,17.73,17.73,0,0,0-3.79,5.58A16.92,16.92,0,0,0,439.27,583.87Z" transform="translate(-261.64 -415.71)"/><path class="cls-12" d="M492.29,585.12a28,28,0,0,1,2.29-11.26A29.47,29.47,0,0,1,510,558.36a27.67,27.67,0,0,1,11.24-2.3h.28a5.09,5.09,0,0,1,3.9,1.42,5,5,0,0,1,1.34,3.58,4.67,4.67,0,0,1-1.54,3.58,5.25,5.25,0,0,1-3.7,1.43h-.28a17.71,17.71,0,0,0-7.28,1.51,19.32,19.32,0,0,0-10.1,10.15,18.26,18.26,0,0,0-1.51,7.39V606a4.91,4.91,0,0,1-1.4,3.58A4.67,4.67,0,0,1,497.5,611a5.32,5.32,0,0,1-2-.37,4.88,4.88,0,0,1-1.66-1.05,5.5,5.5,0,0,1-1.14-1.59,4.56,4.56,0,0,1-.43-2Z" transform="translate(-261.64 -415.71)"/><path class="cls-13" d="M533,544.68a5.1,5.1,0,0,1,.4-2,5.24,5.24,0,0,1,1.1-1.65,5.31,5.31,0,0,1,1.62-1.11,4.78,4.78,0,0,1,1.92-.39,5.21,5.21,0,0,1,2,.39,5.31,5.31,0,0,1,1.67,1.09,5.07,5.07,0,0,1,1.13,1.62,4.87,4.87,0,0,1,.42,2v11.15h22.59a4.83,4.83,0,0,1,3.58,1.5,5,5,0,0,1,1.48,3.62,4.58,4.58,0,0,1-1.45,3.44,5,5,0,0,1-3.61,1.39H543.26v18.55a17,17,0,0,0,1.37,6.8,17.11,17.11,0,0,0,9.3,9.16,17.83,17.83,0,0,0,6.91,1.33,19.8,19.8,0,0,0,6.12-.93,14.21,14.21,0,0,0,5.26-3.16,5.52,5.52,0,0,1,3.81-1.71,4.31,4.31,0,0,1,1.68.34,4.8,4.8,0,0,1,1.48,1,4.36,4.36,0,0,1,1,1.48,4.61,4.61,0,0,1,.37,1.88,6,6,0,0,1-.48,2.3,6.1,6.1,0,0,1-1.34,2,24,24,0,0,1-8.1,5.12,28.3,28.3,0,0,1-29.51-6.2A27.24,27.24,0,0,1,535.2,595,26.81,26.81,0,0,1,533,584.21Z" transform="translate(-261.64 -415.71)"/><path class="cls-14" d="M611.82,611.64a26.42,26.42,0,0,1-10.76-2.2,27.75,27.75,0,0,1-14.62-14.77,28.15,28.15,0,0,1,0-21.65,28.26,28.26,0,0,1,5.89-8.85,27.85,27.85,0,0,1,8.74-6,27.65,27.65,0,0,1,21.5,0,27.58,27.58,0,0,1,8.68,5.9,27.93,27.93,0,0,1,5.87,8.74,28.28,28.28,0,0,1,2.28,10.7v22.67a5,5,0,0,1-1.49,3.67,4.92,4.92,0,0,1-3.66,1.51,4.55,4.55,0,0,1-3.55-1.52,5.32,5.32,0,0,1-1.37-3.69l-.06-.8a27.52,27.52,0,0,1-8,4.64A26.9,26.9,0,0,1,611.82,611.64Zm0-10.13a17.14,17.14,0,0,0,6.94-1.39,17.53,17.53,0,0,0,9.24-9.43A18.15,18.15,0,0,0,628,577a17.21,17.21,0,0,0-3.7-5.59,17.69,17.69,0,0,0-5.54-3.78,17.9,17.9,0,0,0-13.83,0,17.49,17.49,0,0,0-5.52,3.78,18,18,0,0,0-3.69,5.59,17.79,17.79,0,0,0,0,13.69,18.4,18.4,0,0,0,3.69,5.62,17.25,17.25,0,0,0,5.52,3.81A17,17,0,0,0,611.82,601.51Z" transform="translate(-261.64 -415.71)"/><path class="cls-15" d="M651.58,541.43a5,5,0,0,1,1.42-3.61,4.67,4.67,0,0,1,3.47-1.45,5.23,5.23,0,0,1,3.62,1.42,5.51,5.51,0,0,1,1.14,1.62,4.91,4.91,0,0,1,.42,2V592q0,4.44,2.36,6.8a8.8,8.8,0,0,0,6.52,2.36,4.73,4.73,0,0,1,3.55,1.45,5.19,5.19,0,0,1,0,7.06,4.71,4.71,0,0,1-3.53,1.39,20.37,20.37,0,0,1-7.51-1.36,17.71,17.71,0,0,1-6-3.9,18.34,18.34,0,0,1-4-6,20.25,20.25,0,0,1-1.45-7.77Z" transform="translate(-261.64 -415.71)"/></g></svg>